<svg xmlns="http://www.w3.org/2000/svg" viewBox="0 0 200 200" fill="none" stroke="currentColor" stroke-width="1.9" stroke-linecap="round" stroke-linejoin="round"><path pathLength="1" d="M187.7,39.6 L187.7,40.7 L188.0,40.2 L187.3,40.9 L186.0,40.6 L178.4,43.7 L178.5,44.4 L177.0,45.1 L177.0,46.3 L176.1,48.3 L174.6,48.6 L173.2,50.5 L173.5,50.0 L171.3,51.7 L171.1,52.5 L171.6,53.5 L171.1,55.0 L171.4,54.3 L170.7,55.3 L170.0,55.3 L170.6,55.3 L170.0,55.3 L170.1,56.0 L170.1,55.6 L165.7,58.9 L165.7,58.3 L166.8,57.7 L170.0,57.1 L170.1,56.0 L165.7,58.9 L165.4,61.5 L163.9,62.4 L163.9,63.2 L163.0,64.3 L163.0,65.9 L161.8,66.8 L162.3,66.3 L161.4,67.5 L161.5,68.2 L159.3,71.2 L158.3,75.1 L155.5,79.9 L156.1,81.7 L156.0,80.6 L156.0,82.2 L154.8,85.6 L152.6,97.9 L152.3,97.2 L152.1,97.6 L151.4,95.6 L149.3,92.4 L149.5,92.9 L148.9,92.0 L147.6,91.5 L147.1,90.7 L145.9,90.9 L145.1,88.0 L142.8,86.8 L140.9,83.7 L138.5,82.0 L138.5,79.6 L137.2,76.7 L136.3,76.2 L135.8,76.5 L134.1,76.1 L132.3,74.9 L133.0,75.1 L131.9,74.2 L132.3,71.5 L132.0,74.1 L130.8,73.9 L131.3,73.9 L129.9,73.4 L129.0,71.9 L129.4,70.6 L128.5,69.1 L126.9,68.0 L125.1,67.4 L119.8,66.8 L120.5,66.8 L118.4,65.9 L119.2,66.8 L117.9,65.6 L111.9,65.6 L112.7,65.4 L111.5,65.3 L110.3,63.5 L108.4,62.6 L107.1,62.6 L107.8,62.6 L107.1,62.6 L105.4,60.7 L106.3,61.4 L104.8,60.1 L105.3,58.2 L104.3,57.6 L104.4,56.8 L104.3,57.4 L104.1,56.6 L103.5,56.9 L101.7,56.5 L99.7,57.2 L99.2,55.8 L98.8,55.7 L96.8,56.5 L94.5,56.6 L93.1,56.3 L93.8,56.2 L92.5,56.5 L91.9,58.1 L93.0,61.3 L92.4,62.0 L93.8,62.7 L95.0,62.6 L94.1,62.8 L95.0,62.7 L95.1,64.1 L95.3,64.5 L95.9,64.5 L92.6,65.5 L93.2,65.3 L90.6,67.4 L90.9,67.0 L89.7,67.4 L90.5,67.4 L87.1,68.0 L85.4,69.0 L84.0,68.6 L86.5,68.2 L85.7,68.4 L85.6,69.0 L83.2,68.4 L81.9,68.6 L79.9,67.8 L79.5,68.4 L77.0,67.8 L76.7,66.7 L75.7,66.1 L76.5,66.4 L76.7,68.0 L77.6,67.9 L77.7,68.4 L78.6,68.7 L77.9,68.4 L78.6,69.1 L78.6,68.7 L78.5,71.2 L78.8,70.0 L78.6,69.2 L78.5,71.4 L78.0,72.0 L78.9,73.6 L78.4,74.8 L79.9,75.6 L79.9,76.4 L80.0,75.7 L79.0,74.9 L79.9,75.6 L78.5,74.5 L78.1,74.9 L76.9,73.6 L77.3,73.7 L77.2,74.7 L78.0,75.1 L76.9,73.6 L74.5,74.1 L75.3,73.9 L75.7,74.4 L76.5,74.3 L76.8,73.6 L74.4,74.3 L73.8,75.3 L71.1,76.2 L72.4,76.2 L73.8,75.3 L71.1,76.2 L69.4,75.8 L70.7,76.1 L69.3,75.8 L66.7,76.9 L67.3,76.4 L64.4,78.8 L63.1,79.2 L61.6,82.7 L60.4,83.7 L59.1,84.2 L59.0,83.9 L58.9,84.2 L58.6,83.9 L58.1,86.0 L57.2,86.5 L57.5,88.1 L56.8,89.4 L57.2,88.6 L56.1,89.7 L56.7,89.5 L55.3,89.4 L56.1,89.7 L54.4,89.8 L55.0,89.4 L52.6,90.7 L52.2,91.8 L52.6,91.5 L52.6,90.8 L52.0,91.9 L52.3,93.0 L51.6,96.4 L48.1,102.3 L48.9,102.8 L48.5,102.4 L49.1,104.2 L48.3,107.0 L48.6,108.5 L47.1,110.0 L47.2,111.2 L46.3,111.9 L46.3,113.6 L45.9,113.4 L45.7,114.2 L44.5,114.6 L44.9,115.7 L44.6,116.6 L45.5,119.5 L44.5,120.5 L44.0,123.6 L40.3,122.6 L36.9,123.6 L36.2,124.9 L36.9,123.8 L34.6,126.2 L35.4,125.8 L34.6,126.2 L34.6,127.9 L35.2,127.2 L35.3,126.5 L34.8,126.3 L34.6,127.9 L33.1,129.3 L33.0,130.9 L32.3,131.5 L33.0,130.9 L31.4,132.2 L31.9,133.5 L31.7,133.0 L31.9,133.7 L31.4,135.2 L32.1,134.3 L31.9,133.7 L31.5,135.7 L28.3,138.5 L28.6,140.6 L28.8,139.6 L28.2,138.9 L28.5,141.6 L28.6,141.0 L29.1,143.0 L28.7,142.4 L28.6,141.7 L29.7,143.6 L29.4,144.6 L29.7,143.6 L29.5,144.7 L30.1,145.3 L29.9,147.0 L30.5,147.8 L29.6,148.3 L29.5,149.8 L31.6,151.7 L34.1,152.5 L34.3,152.9 L31.7,152.0 L32.1,151.8 L34.5,153.0 L35.8,155.9 L36.7,159.8 L36.4,160.3 L34.6,160.2 L34.1,159.4 L32.6,159.1 L33.0,159.3 L32.1,158.5 L31.5,158.7 L31.8,157.5 L30.7,155.9 L31.5,154.2 L30.6,153.8 L30.7,152.2 L29.5,149.8 L30.2,150.7 L29.5,149.8 L29.9,146.0 L30.5,147.8 L29.6,148.3 L29.9,145.9 L29.5,144.7 L30.1,145.3 L29.9,145.9 L29.4,144.6 L29.7,143.6 L28.6,141.7 L27.6,141.8 L27.6,142.6 L26.1,142.7 L25.1,142.4 L25.5,141.8 L25.0,141.4 L25.3,140.9 L24.6,141.4 L24.1,141.0 L24.4,140.1 L22.4,141.0 L21.4,139.9 L21.2,138.8 L19.3,139.2 L18.8,137.1 L18.9,137.5 L18.5,136.9 L16.6,136.9 L15.5,135.8 L15.2,134.4 L14.1,133.8 L15.1,134.3 L14.1,133.4 L13.9,132.6 L13.1,133.0 L12.0,132.1"/></svg>
